STARTFONT 2.1
FONT -FontForge-Bm437 HP 100LX 10x11-Normal-R-Normal--11-110-72-72-C-100-WinRoman-0
SIZE 11 72 72
FONTBOUNDINGBOX 10 11 0 -2
COMMENT "Generated by fontforge, http://fontforge.sourceforge.net"
COMMENT "FON conversion by VileR, 2020; license: CC BY-SA 4.0"
STARTPROPERTIES 34
FOUNDRY "FontForge"
FAMILY_NAME "Bm437 HP 100LX 10x11"
WEIGHT_NAME "Normal"
SLANT "R"
SETWIDTH_NAME "Normal"
ADD_STYLE_NAME ""
PIXEL_SIZE 11
POINT_SIZE 110
RESOLUTION_X 72
RESOLUTION_Y 72
SPACING "C"
AVERAGE_WIDTH 100
CHARSET_REGISTRY "WinRoman"
CHARSET_ENCODING "0"
FONTNAME_REGISTRY ""
CHARSET_COLLECTIONS "WinRoman"
FONT_NAME "Bm437HP100LX10x11"
FACE_NAME "Bm437 HP 100LX 10x11"
COPYRIGHT "FON conversion by VileR, 2020; license: CC BY-SA 4.0"
FONT_VERSION "001.000"
FONT_ASCENT 9
FONT_DESCENT 2
UNDERLINE_POSITION -1
UNDERLINE_THICKNESS 1
X_HEIGHT 5
CAP_HEIGHT 8
RAW_ASCENT 800
RAW_DESCENT 200
NORM_SPACE 10
RELATIVE_WEIGHT 40
RELATIVE_SETWIDTH 50
FIGURE_WIDTH 10
AVG_LOWERCASE_WIDTH 100
AVG_UPPERCASE_WIDTH 100
ENDPROPERTIES
CHARS 256
STARTCHAR uni0000
ENCODING 0
SWIDTH 909 0
DWIDTH 10 0
BBX 1 1 9 -2
BITMAP
00
ENDCHAR
STARTCHAR uni0001
ENCODING 1
SWIDTH 909 0
DWIDTH 10 0
BBX 9 9 1 0
BITMAP
3E00
4100
9480
8080
A280
E380
9C80
4100
3E00
ENDCHAR
STARTCHAR uni0002
ENCODING 2
SWIDTH 909 0
DWIDTH 10 0
BBX 9 9 1 0
BITMAP
3E00
7F00
EB80
FF80
DD80
9C80
E380
7F00
3E00
ENDCHAR
STARTCHAR uni0003
ENCODING 3
SWIDTH 909 0
DWIDTH 10 0
BBX 9 9 1 0
BITMAP
7700
FF80
FF80
FF80
FF80
7F00
3E00
1C00
0800
ENDCHAR
STARTCHAR uni0004
ENCODING 4
SWIDTH 909 0
DWIDTH 10 0
BBX 9 9 1 0
BITMAP
0800
1C00
3E00
7F00
FF80
7F00
3E00
1C00
0800
ENDCHAR
STARTCHAR uni0005
ENCODING 5
SWIDTH 909 0
DWIDTH 10 0
BBX 9 9 1 0
BITMAP
0800
1C00
1C00
1C00
7700
FF80
6B00
0800
1C00
ENDCHAR
STARTCHAR uni0006
ENCODING 6
SWIDTH 909 0
DWIDTH 10 0
BBX 7 9 2 0
BITMAP
10
38
7C
FE
FE
FE
6C
10
38
ENDCHAR
STARTCHAR uni0007
ENCODING 7
SWIDTH 909 0
DWIDTH 10 0
BBX 6 5 2 2
BITMAP
78
FC
FC
FC
78
ENDCHAR
STARTCHAR uni0008
ENCODING 8
SWIDTH 909 0
DWIDTH 10 0
BBX 10 11 0 -2
BITMAP
FFC0
FFC0
E1C0
C0C0
C0C0
C0C0
E1C0
FFC0
FFC0
FFC0
FFC0
ENDCHAR
STARTCHAR uni0009
ENCODING 9
SWIDTH 909 0
DWIDTH 10 0
BBX 8 7 1 1
BITMAP
3C
42
81
81
81
42
3C
ENDCHAR
STARTCHAR uni000A
ENCODING 10
SWIDTH 909 0
DWIDTH 10 0
BBX 10 11 0 -2
BITMAP
FFC0
E1C0
DEC0
BF40
BF40
BF40
DEC0
E1C0
FFC0
FFC0
FFC0
ENDCHAR
STARTCHAR uni000B
ENCODING 11
SWIDTH 909 0
DWIDTH 10 0
BBX 9 9 1 0
BITMAP
0F80
0380
0680
7C80
CC00
8400
8400
CC00
7800
ENDCHAR
STARTCHAR uni000C
ENCODING 12
SWIDTH 909 0
DWIDTH 10 0
BBX 6 11 2 -2
BITMAP
78
CC
84
84
CC
78
30
78
78
30
30
ENDCHAR
STARTCHAR uni000D
ENCODING 13
SWIDTH 909 0
DWIDTH 10 0
BBX 5 8 2 0
BITMAP
20
30
38
28
28
20
E0
C0
ENDCHAR
STARTCHAR uni000E
ENCODING 14
SWIDTH 909 0
DWIDTH 10 0
BBX 6 9 1 -1
BITMAP
20
30
28
34
2C
24
E4
DC
18
ENDCHAR
STARTCHAR uni000F
ENCODING 15
SWIDTH 909 0
DWIDTH 10 0
BBX 9 9 1 -1
BITMAP
0800
4900
3E00
3600
E380
3600
3E00
4900
0800
ENDCHAR
STARTCHAR uni0010
ENCODING 16
SWIDTH 909 0
DWIDTH 10 0
BBX 8 8 1 0
BITMAP
C0
F0
FC
FF
FF
FC
F0
C0
ENDCHAR
STARTCHAR uni0011
ENCODING 17
SWIDTH 909 0
DWIDTH 10 0
BBX 8 8 1 0
BITMAP
03
0F
3F
FF
FF
3F
0F
03
ENDCHAR
STARTCHAR uni0012
ENCODING 18
SWIDTH 909 0
DWIDTH 10 0
BBX 6 9 2 -1
BITMAP
30
78
FC
30
30
30
FC
78
30
ENDCHAR
STARTCHAR uni0013
ENCODING 19
SWIDTH 909 0
DWIDTH 10 0
BBX 9 9 1 0
BITMAP
6300
F780
F780
F780
6300
6300
0000
6300
6300
ENDCHAR
STARTCHAR uni0014
ENCODING 20
SWIDTH 909 0
DWIDTH 10 0
BBX 8 9 1 0
BITMAP
7F
DB
DB
7B
1B
1B
1B
1B
1B
ENDCHAR
STARTCHAR uni0015
ENCODING 21
SWIDTH 909 0
DWIDTH 10 0
BBX 6 11 3 -2
BITMAP
78
C4
C0
78
CC
CC
CC
78
0C
8C
78
ENDCHAR
STARTCHAR uni0016
ENCODING 22
SWIDTH 909 0
DWIDTH 10 0
BBX 10 2 0 -2
BITMAP
FFC0
FFC0
ENDCHAR
STARTCHAR uni0017
ENCODING 23
SWIDTH 909 0
DWIDTH 10 0
BBX 6 11 2 -2
BITMAP
30
78
FC
30
30
30
30
FC
78
30
FC
ENDCHAR
STARTCHAR uni0018
ENCODING 24
SWIDTH 909 0
DWIDTH 10 0
BBX 8 11 1 -2
BITMAP
18
3C
7E
FF
18
18
18
18
18
18
18
ENDCHAR
STARTCHAR uni0019
ENCODING 25
SWIDTH 909 0
DWIDTH 10 0
BBX 8 11 1 -2
BITMAP
18
18
18
18
18
18
18
FF
7E
3C
18
ENDCHAR
STARTCHAR uni001A
ENCODING 26
SWIDTH 909 0
DWIDTH 10 0
BBX 10 8 0 0
BITMAP
0200
0300
0380
FFC0
FFC0
0380
0300
0200
ENDCHAR
STARTCHAR uni001B
ENCODING 27
SWIDTH 909 0
DWIDTH 10 0
BBX 10 8 0 0
BITMAP
1000
3000
7000
FFC0
FFC0
7000
3000
1000
ENDCHAR
STARTCHAR uni001C
ENCODING 28
SWIDTH 909 0
DWIDTH 10 0
BBX 8 5 2 3
BITMAP
C0
C0
C0
FF
FF
ENDCHAR
STARTCHAR uni001D
ENCODING 29
SWIDTH 909 0
DWIDTH 10 0
BBX 10 6 0 1
BITMAP
2100
6180
FFC0
FFC0
6180
2100
ENDCHAR
STARTCHAR uni001E
ENCODING 30
SWIDTH 909 0
DWIDTH 10 0
BBX 8 8 1 0
BITMAP
18
18
3C
3C
7E
7E
FF
FF
ENDCHAR
STARTCHAR uni001F
ENCODING 31
SWIDTH 909 0
DWIDTH 10 0
BBX 8 8 1 0
BITMAP
FF
FF
7E
7E
3C
3C
18
18
ENDCHAR
STARTCHAR space
ENCODING 32
SWIDTH 909 0
DWIDTH 10 0
BBX 1 1 9 -2
BITMAP
00
ENDCHAR
STARTCHAR exclam
ENCODING 33
SWIDTH 909 0
DWIDTH 10 0
BBX 4 9 3 0
BITMAP
60
F0
F0
F0
60
60
00
60
60
ENDCHAR
STARTCHAR quotedbl
ENCODING 34
SWIDTH 909 0
DWIDTH 10 0
BBX 6 3 2 6
BITMAP
CC
CC
48
ENDCHAR
STARTCHAR numbersign
ENCODING 35
SWIDTH 909 0
DWIDTH 10 0
BBX 8 9 1 0
BITMAP
66
66
FF
66
66
66
FF
66
66
ENDCHAR
STARTCHAR dollar
ENCODING 36
SWIDTH 909 0
DWIDTH 10 0
BBX 8 9 1 0
BITMAP
18
7E
C3
C0
3C
03
C3
7E
18
ENDCHAR
STARTCHAR percent
ENCODING 37
SWIDTH 909 0
DWIDTH 10 0
BBX 9 10 1 -1
BITMAP
7080
D980
DB00
7600
0C00
1800
3700
6D80
CD80
0700
ENDCHAR
STARTCHAR ampersand
ENCODING 38
SWIDTH 909 0
DWIDTH 10 0
BBX 7 9 1 0
BITMAP
38
6C
6C
38
76
DC
CC
CC
76
ENDCHAR
STARTCHAR quotesingle
ENCODING 39
SWIDTH 909 0
DWIDTH 10 0
BBX 2 4 4 5
BITMAP
C0
C0
40
80
ENDCHAR
STARTCHAR parenleft
ENCODING 40
SWIDTH 909 0
DWIDTH 10 0
BBX 4 9 3 0
BITMAP
30
60
C0
C0
C0
C0
C0
60
30
ENDCHAR
STARTCHAR parenright
ENCODING 41
SWIDTH 909 0
DWIDTH 10 0
BBX 4 9 4 0
BITMAP
C0
60
30
30
30
30
30
60
C0
ENDCHAR
STARTCHAR asterisk
ENCODING 42
SWIDTH 909 0
DWIDTH 10 0
BBX 6 5 2 2
BITMAP
48
30
FC
30
48
ENDCHAR
STARTCHAR plus
ENCODING 43
SWIDTH 909 0
DWIDTH 10 0
BBX 6 5 2 2
BITMAP
30
30
FC
30
30
ENDCHAR
STARTCHAR comma
ENCODING 44
SWIDTH 909 0
DWIDTH 10 0
BBX 3 3 3 -1
BITMAP
60
60
C0
ENDCHAR
STARTCHAR hyphen
ENCODING 45
SWIDTH 909 0
DWIDTH 10 0
BBX 6 1 2 4
BITMAP
FC
ENDCHAR
STARTCHAR period
ENCODING 46
SWIDTH 909 0
DWIDTH 10 0
BBX 2 2 4 0
BITMAP
C0
C0
ENDCHAR
STARTCHAR slash
ENCODING 47
SWIDTH 909 0
DWIDTH 10 0
BBX 8 8 1 0
BITMAP
03
06
0C
18
30
60
C0
80
ENDCHAR
STARTCHAR zero
ENCODING 48
SWIDTH 909 0
DWIDTH 10 0
BBX 8 9 1 0
BITMAP
7E
C3
C7
CB
DB
D3
E3
C3
7E
ENDCHAR
STARTCHAR one
ENCODING 49
SWIDTH 909 0
DWIDTH 10 0
BBX 6 9 2 0
BITMAP
30
70
F0
30
30
30
30
30
FC
ENDCHAR
STARTCHAR two
ENCODING 50
SWIDTH 909 0
DWIDTH 10 0
BBX 8 9 1 0
BITMAP
7E
C3
83
03
0E
38
60
C3
FF
ENDCHAR
STARTCHAR three
ENCODING 51
SWIDTH 909 0
DWIDTH 10 0
BBX 8 9 1 0
BITMAP
7E
C7
03
03
1E
03
03
C7
7E
ENDCHAR
STARTCHAR four
ENCODING 52
SWIDTH 909 0
DWIDTH 10 0
BBX 8 9 1 0
BITMAP
0E
1E
36
66
C6
FF
06
06
0F
ENDCHAR
STARTCHAR five
ENCODING 53
SWIDTH 909 0
DWIDTH 10 0
BBX 8 9 1 0
BITMAP
FF
C0
C0
FE
03
03
03
C3
7E
ENDCHAR
STARTCHAR six
ENCODING 54
SWIDTH 909 0
DWIDTH 10 0
BBX 8 9 1 0
BITMAP
7E
C3
C0
C0
FE
C3
C3
C3
7E
ENDCHAR
STARTCHAR seven
ENCODING 55
SWIDTH 909 0
DWIDTH 10 0
BBX 8 9 1 0
BITMAP
FF
C3
03
03
06
0C
18
18
18
ENDCHAR
STARTCHAR eight
ENCODING 56
SWIDTH 909 0
DWIDTH 10 0
BBX 8 9 1 0
BITMAP
7E
C3
C3
C3
7E
C3
C3
C3
7E
ENDCHAR
STARTCHAR nine
ENCODING 57
SWIDTH 909 0
DWIDTH 10 0
BBX 8 9 1 0
BITMAP
7E
C3
C3
C3
7F
03
03
C3
7E
ENDCHAR
STARTCHAR colon
ENCODING 58
SWIDTH 909 0
DWIDTH 10 0
BBX 2 6 4 0
BITMAP
C0
C0
00
00
C0
C0
ENDCHAR
STARTCHAR semicolon
ENCODING 59
SWIDTH 909 0
DWIDTH 10 0
BBX 3 7 3 -1
BITMAP
60
60
00
00
60
60
C0
ENDCHAR
STARTCHAR less
ENCODING 60
SWIDTH 909 0
DWIDTH 10 0
BBX 6 9 2 -1
BITMAP
0C
18
30
60
C0
60
30
18
0C
ENDCHAR
STARTCHAR equal
ENCODING 61
SWIDTH 909 0
DWIDTH 10 0
BBX 6 4 2 2
BITMAP
FC
00
00
FC
ENDCHAR
STARTCHAR greater
ENCODING 62
SWIDTH 909 0
DWIDTH 10 0
BBX 6 9 2 -1
BITMAP
C0
60
30
18
0C
18
30
60
C0
ENDCHAR
STARTCHAR question
ENCODING 63
SWIDTH 909 0
DWIDTH 10 0
BBX 8 9 1 0
BITMAP
7E
E3
C3
06
0C
18
00
18
18
ENDCHAR
STARTCHAR at
ENCODING 64
SWIDTH 909 0
DWIDTH 10 0
BBX 8 9 1 0
BITMAP
7E
E7
C3
CF
DB
DB
CF
E0
7E
ENDCHAR
STARTCHAR A
ENCODING 65
SWIDTH 909 0
DWIDTH 10 0
BBX 8 9 1 0
BITMAP
3C
66
66
C3
C3
FF
C3
C3
C3
ENDCHAR
STARTCHAR B
ENCODING 66
SWIDTH 909 0
DWIDTH 10 0
BBX 8 9 1 0
BITMAP
FE
63
63
63
7E
63
63
63
FE
ENDCHAR
STARTCHAR C
ENCODING 67
SWIDTH 909 0
DWIDTH 10 0
BBX 8 9 1 0
BITMAP
3E
63
C0
C0
C0
C0
C0
63
3E
ENDCHAR
STARTCHAR D
ENCODING 68
SWIDTH 909 0
DWIDTH 10 0
BBX 8 9 1 0
BITMAP
FC
66
63
63
63
63
63
66
FC
ENDCHAR
STARTCHAR E
ENCODING 69
SWIDTH 909 0
DWIDTH 10 0
BBX 8 9 1 0
BITMAP
FF
61
60
64
7C
64
60
61
FF
ENDCHAR
STARTCHAR F
ENCODING 70
SWIDTH 909 0
DWIDTH 10 0
BBX 8 9 1 0
BITMAP
FF
61
60
64
7C
64
60
60
F0
ENDCHAR
STARTCHAR G
ENCODING 71
SWIDTH 909 0
DWIDTH 10 0
BBX 8 9 1 0
BITMAP
3E
63
C0
C0
C0
CF
C3
63
3E
ENDCHAR
STARTCHAR H
ENCODING 72
SWIDTH 909 0
DWIDTH 10 0
BBX 8 9 1 0
BITMAP
C3
C3
C3
C3
FF
C3
C3
C3
C3
ENDCHAR
STARTCHAR I
ENCODING 73
SWIDTH 909 0
DWIDTH 10 0
BBX 6 9 2 0
BITMAP
FC
30
30
30
30
30
30
30
FC
ENDCHAR
STARTCHAR J
ENCODING 74
SWIDTH 909 0
DWIDTH 10 0
BBX 9 9 1 0
BITMAP
0780
0300
0300
0300
0300
C300
C300
E700
7E00
ENDCHAR
STARTCHAR K
ENCODING 75
SWIDTH 909 0
DWIDTH 10 0
BBX 9 9 1 0
BITMAP
F180
6380
6300
6600
7C00
6600
6300
6300
F380
ENDCHAR
STARTCHAR L
ENCODING 76
SWIDTH 909 0
DWIDTH 10 0
BBX 8 9 1 0
BITMAP
F0
60
60
60
60
60
60
61
FF
ENDCHAR
STARTCHAR M
ENCODING 77
SWIDTH 909 0
DWIDTH 10 0
BBX 9 9 1 0
BITMAP
C180
E380
F780
DD80
C980
C180
C180
C180
C180
ENDCHAR
STARTCHAR N
ENCODING 78
SWIDTH 909 0
DWIDTH 10 0
BBX 8 9 1 0
BITMAP
E3
E3
F3
D3
DB
CB
CF
C7
C7
ENDCHAR
STARTCHAR O
ENCODING 79
SWIDTH 909 0
DWIDTH 10 0
BBX 9 9 1 0
BITMAP
3E00
6300
C180
C180
C180
C180
C180
6300
3E00
ENDCHAR
STARTCHAR P
ENCODING 80
SWIDTH 909 0
DWIDTH 10 0
BBX 9 9 1 0
BITMAP
FF00
6380
6180
6380
7F00
6000
6000
6000
F000
ENDCHAR
STARTCHAR Q
ENCODING 81
SWIDTH 909 0
DWIDTH 10 0
BBX 9 10 1 -1
BITMAP
3E00
6300
C180
C180
C180
C180
CD80
6700
3F00
0180
ENDCHAR
STARTCHAR R
ENCODING 82
SWIDTH 909 0
DWIDTH 10 0
BBX 9 9 1 0
BITMAP
FF00
6380
6180
6380
7F00
6600
6300
6180
F180
ENDCHAR
STARTCHAR S
ENCODING 83
SWIDTH 909 0
DWIDTH 10 0
BBX 8 9 1 0
BITMAP
7E
E3
C0
E0
7E
07
03
C7
7E
ENDCHAR
STARTCHAR T
ENCODING 84
SWIDTH 909 0
DWIDTH 10 0
BBX 8 9 1 0
BITMAP
FF
99
18
18
18
18
18
18
3C
ENDCHAR
STARTCHAR U
ENCODING 85
SWIDTH 909 0
DWIDTH 10 0
BBX 8 9 1 0
BITMAP
C3
C3
C3
C3
C3
C3
C3
E7
7E
ENDCHAR
STARTCHAR V
ENCODING 86
SWIDTH 909 0
DWIDTH 10 0
BBX 8 9 1 0
BITMAP
C3
C3
C3
C3
66
66
3C
3C
18
ENDCHAR
STARTCHAR W
ENCODING 87
SWIDTH 909 0
DWIDTH 10 0
BBX 9 9 1 0
BITMAP
C180
C180
C180
C980
DD80
FF80
7700
6300
6300
ENDCHAR
STARTCHAR X
ENCODING 88
SWIDTH 909 0
DWIDTH 10 0
BBX 9 9 1 0
BITMAP
F780
6300
3600
1C00
1C00
1C00
3600
6300
F780
ENDCHAR
STARTCHAR Y
ENCODING 89
SWIDTH 909 0
DWIDTH 10 0
BBX 8 9 1 0
BITMAP
E7
66
66
3C
3C
18
18
18
3C
ENDCHAR
STARTCHAR Z
ENCODING 90
SWIDTH 909 0
DWIDTH 10 0
BBX 8 9 1 0
BITMAP
FF
C3
86
0C
18
30
61
C3
FF
ENDCHAR
STARTCHAR bracketleft
ENCODING 91
SWIDTH 909 0
DWIDTH 10 0
BBX 4 9 4 0
BITMAP
F0
C0
C0
C0
C0
C0
C0
C0
F0
ENDCHAR
STARTCHAR backslash
ENCODING 92
SWIDTH 909 0
DWIDTH 10 0
BBX 8 8 1 0
BITMAP
C0
60
30
18
0C
06
03
01
ENDCHAR
STARTCHAR bracketright
ENCODING 93
SWIDTH 909 0
DWIDTH 10 0
BBX 4 9 2 0
BITMAP
F0
30
30
30
30
30
30
30
F0
ENDCHAR
STARTCHAR asciicircum
ENCODING 94
SWIDTH 909 0
DWIDTH 10 0
BBX 6 3 2 6
BITMAP
30
78
CC
ENDCHAR
STARTCHAR underscore
ENCODING 95
SWIDTH 909 0
DWIDTH 10 0
BBX 10 1 0 -2
BITMAP
FFC0
ENDCHAR
STARTCHAR grave
ENCODING 96
SWIDTH 909 0
DWIDTH 10 0
BBX 4 2 4 7
BITMAP
E0
30
ENDCHAR
STARTCHAR a
ENCODING 97
SWIDTH 909 0
DWIDTH 10 0
BBX 9 6 1 0
BITMAP
3E00
0300
7B00
C700
C700
7B80
ENDCHAR
STARTCHAR b
ENCODING 98
SWIDTH 909 0
DWIDTH 10 0
BBX 9 9 0 0
BITMAP
E000
6000
6000
6F00
7380
6180
6180
7380
6F00
ENDCHAR
STARTCHAR c
ENCODING 99
SWIDTH 909 0
DWIDTH 10 0
BBX 8 6 1 0
BITMAP
7E
E3
C0
C0
E3
7E
ENDCHAR
STARTCHAR d
ENCODING 100
SWIDTH 909 0
DWIDTH 10 0
BBX 9 9 1 0
BITMAP
0700
0300
0300
7B00
E700
C300
C300
E700
7B80
ENDCHAR
STARTCHAR e
ENCODING 101
SWIDTH 909 0
DWIDTH 10 0
BBX 8 6 1 0
BITMAP
7E
C3
C3
FF
C0
7E
ENDCHAR
STARTCHAR f
ENCODING 102
SWIDTH 909 0
DWIDTH 10 0
BBX 9 9 1 0
BITMAP
1F00
3180
3000
FC00
3000
3000
3000
3000
FC00
ENDCHAR
STARTCHAR g
ENCODING 103
SWIDTH 909 0
DWIDTH 10 0
BBX 9 7 1 -1
BITMAP
7D80
E700
C300
E700
7B00
0300
7E00
ENDCHAR
STARTCHAR h
ENCODING 104
SWIDTH 909 0
DWIDTH 10 0
BBX 9 9 0 0
BITMAP
E000
6000
6000
6F00
7380
6180
6180
6180
6180
ENDCHAR
STARTCHAR i
ENCODING 105
SWIDTH 909 0
DWIDTH 10 0
BBX 6 9 2 0
BITMAP
30
30
00
F0
30
30
30
30
FC
ENDCHAR
STARTCHAR j
ENCODING 106
SWIDTH 909 0
DWIDTH 10 0
BBX 7 10 0 -1
BITMAP
06
06
00
0E
06
06
06
C6
6C
38
ENDCHAR
STARTCHAR k
ENCODING 107
SWIDTH 909 0
DWIDTH 10 0
BBX 9 9 0 0
BITMAP
E000
6000
6300
6600
6C00
7C00
7600
6300
F180
ENDCHAR
STARTCHAR l
ENCODING 108
SWIDTH 909 0
DWIDTH 10 0
BBX 6 9 2 0
BITMAP
F0
30
30
30
30
30
30
30
FC
ENDCHAR
STARTCHAR m
ENCODING 109
SWIDTH 909 0
DWIDTH 10 0
BBX 9 6 0 0
BITMAP
DB00
7F80
6D80
6D80
6180
6180
ENDCHAR
STARTCHAR n
ENCODING 110
SWIDTH 909 0
DWIDTH 10 0
BBX 9 6 0 0
BITMAP
EF00
7380
6180
6180
6180
6180
ENDCHAR
STARTCHAR o
ENCODING 111
SWIDTH 909 0
DWIDTH 10 0
BBX 8 6 1 0
BITMAP
7E
E7
C3
C3
E7
7E
ENDCHAR
STARTCHAR p
ENCODING 112
SWIDTH 909 0
DWIDTH 10 0
BBX 9 7 0 -1
BITMAP
DF00
6380
6180
6380
7F00
6000
F000
ENDCHAR
STARTCHAR q
ENCODING 113
SWIDTH 909 0
DWIDTH 10 0
BBX 9 7 1 -1
BITMAP
7D80
E300
C300
E300
7F00
0300
0780
ENDCHAR
STARTCHAR r
ENCODING 114
SWIDTH 909 0
DWIDTH 10 0
BBX 8 6 1 0
BITMAP
DE
73
60
60
60
F0
ENDCHAR
STARTCHAR s
ENCODING 115
SWIDTH 909 0
DWIDTH 10 0
BBX 8 6 1 0
BITMAP
7E
E1
7E
03
C3
7E
ENDCHAR
STARTCHAR t
ENCODING 116
SWIDTH 909 0
DWIDTH 10 0
BBX 8 9 1 0
BITMAP
20
60
60
F8
60
60
60
73
3E
ENDCHAR
STARTCHAR u
ENCODING 117
SWIDTH 909 0
DWIDTH 10 0
BBX 9 6 1 0
BITMAP
C300
C300
C300
C300
E700
7B80
ENDCHAR
STARTCHAR v
ENCODING 118
SWIDTH 909 0
DWIDTH 10 0
BBX 8 6 1 0
BITMAP
C3
C3
C3
66
3C
18
ENDCHAR
STARTCHAR w
ENCODING 119
SWIDTH 909 0
DWIDTH 10 0
BBX 8 6 1 0
BITMAP
C3
C3
DB
DB
7E
66
ENDCHAR
STARTCHAR x
ENCODING 120
SWIDTH 909 0
DWIDTH 10 0
BBX 8 6 1 0
BITMAP
C3
66
3C
3C
66
C3
ENDCHAR
STARTCHAR y
ENCODING 121
SWIDTH 909 0
DWIDTH 10 0
BBX 8 7 1 -1
BITMAP
C3
C3
C3
E7
7F
03
7E
ENDCHAR
STARTCHAR z
ENCODING 122
SWIDTH 909 0
DWIDTH 10 0
BBX 8 6 1 0
BITMAP
FF
C7
0C
30
E3
FF
ENDCHAR
STARTCHAR braceleft
ENCODING 123
SWIDTH 909 0
DWIDTH 10 0
BBX 5 9 3 0
BITMAP
38
60
60
60
C0
60
60
60
38
ENDCHAR
STARTCHAR bar
ENCODING 124
SWIDTH 909 0
DWIDTH 10 0
BBX 2 9 4 0
BITMAP
C0
C0
C0
C0
C0
C0
C0
C0
C0
ENDCHAR
STARTCHAR braceright
ENCODING 125
SWIDTH 909 0
DWIDTH 10 0
BBX 5 9 2 0
BITMAP
E0
30
30
30
18
30
30
30
E0
ENDCHAR
STARTCHAR asciitilde
ENCODING 126
SWIDTH 909 0
DWIDTH 10 0
BBX 8 3 1 6
BITMAP
70
DB
0E
ENDCHAR
STARTCHAR uni007F
ENCODING 127
SWIDTH 909 0
DWIDTH 10 0
BBX 8 8 1 0
BITMAP
18
3C
66
C3
C3
C3
C3
FF
ENDCHAR
STARTCHAR Euro
ENCODING 128
SWIDTH 909 0
DWIDTH 10 0
BBX 8 11 1 -2
BITMAP
3E
63
C0
C0
C0
C0
C0
63
3E
18
30
ENDCHAR
STARTCHAR NameMe.129
ENCODING 129
SWIDTH 909 0
DWIDTH 10 0
BBX 9 9 1 0
BITMAP
6600
6600
0000
C300
C300
C300
C300
E700
7B80
ENDCHAR
STARTCHAR quotesinglbase
ENCODING 130
SWIDTH 909 0
DWIDTH 10 0
BBX 8 9 1 0
BITMAP
0E
18
00
7E
C3
C3
FF
C0
7E
ENDCHAR
STARTCHAR florin
ENCODING 131
SWIDTH 909 0
DWIDTH 10 0
BBX 9 9 1 0
BITMAP
3C00
6600
0000
3E00
0300
7B00
C700
C700
7B80
ENDCHAR
STARTCHAR quotedblbase
ENCODING 132
SWIDTH 909 0
DWIDTH 10 0
BBX 9 9 1 0
BITMAP
3600
3600
0000
3E00
0300
7B00
C700
C700
7B80
ENDCHAR
STARTCHAR ellipsis
ENCODING 133
SWIDTH 909 0
DWIDTH 10 0
BBX 9 9 1 0
BITMAP
3800
0C00
0000
3E00
0300
7B00
C700
C700
7B80
ENDCHAR
STARTCHAR dagger
ENCODING 134
SWIDTH 909 0
DWIDTH 10 0
BBX 9 9 1 0
BITMAP
1C00
1400
1C00
3E00
0300
7B00
C700
C700
7B80
ENDCHAR
STARTCHAR daggerdbl
ENCODING 135
SWIDTH 909 0
DWIDTH 10 0
BBX 8 8 1 -2
BITMAP
7E
E3
C0
C0
E3
7E
18
30
ENDCHAR
STARTCHAR circumflex
ENCODING 136
SWIDTH 909 0
DWIDTH 10 0
BBX 8 9 1 0
BITMAP
3C
66
00
7E
C3
C3
FF
C0
7E
ENDCHAR
STARTCHAR perthousand
ENCODING 137
SWIDTH 909 0
DWIDTH 10 0
BBX 8 9 1 0
BITMAP
66
66
00
7E
C3
C3
FF
C0
7E
ENDCHAR
STARTCHAR Scaron
ENCODING 138
SWIDTH 909 0
DWIDTH 10 0
BBX 8 9 1 0
BITMAP
38
0C
00
7E
C3
C3
FF
C0
7E
ENDCHAR
STARTCHAR guilsinglleft
ENCODING 139
SWIDTH 909 0
DWIDTH 10 0
BBX 6 9 2 0
BITMAP
CC
CC
00
F0
30
30
30
30
FC
ENDCHAR
STARTCHAR OE
ENCODING 140
SWIDTH 909 0
DWIDTH 10 0
BBX 6 9 2 0
BITMAP
78
CC
00
F0
30
30
30
30
FC
ENDCHAR
STARTCHAR NameMe.141
ENCODING 141
SWIDTH 909 0
DWIDTH 10 0
BBX 6 9 2 0
BITMAP
E0
30
00
F0
30
30
30
30
FC
ENDCHAR
STARTCHAR Zcaron
ENCODING 142
SWIDTH 909 0
DWIDTH 10 0
BBX 8 9 1 0
BITMAP
C3
3C
7E
C3
C3
FF
C3
C3
C3
ENDCHAR
STARTCHAR NameMe.143
ENCODING 143
SWIDTH 909 0
DWIDTH 10 0
BBX 8 9 1 0
BITMAP
3C
24
7E
C3
C3
FF
C3
C3
C3
ENDCHAR
STARTCHAR NameMe.144
ENCODING 144
SWIDTH 909 0
DWIDTH 10 0
BBX 8 9 1 0
BITMAP
0E
FF
61
64
7C
64
60
61
FF
ENDCHAR
STARTCHAR quoteleft
ENCODING 145
SWIDTH 909 0
DWIDTH 10 0
BBX 9 6 1 0
BITMAP
7700
0C80
7F80
CC00
CC00
7F00
ENDCHAR
STARTCHAR quoteright
ENCODING 146
SWIDTH 909 0
DWIDTH 10 0
BBX 9 9 1 0
BITMAP
3F80
4C00
CC00
CC00
FF00
CC00
CC00
CC00
CF80
ENDCHAR
STARTCHAR quotedblleft
ENCODING 147
SWIDTH 909 0
DWIDTH 10 0
BBX 8 9 1 0
BITMAP
3C
66
00
7E
E7
C3
C3
E7
7E
ENDCHAR
STARTCHAR quotedblright
ENCODING 148
SWIDTH 909 0
DWIDTH 10 0
BBX 8 9 1 0
BITMAP
66
66
00
7E
E7
C3
C3
E7
7E
ENDCHAR
STARTCHAR bullet
ENCODING 149
SWIDTH 909 0
DWIDTH 10 0
BBX 8 9 1 0
BITMAP
70
18
00
7E
E7
C3
C3
E7
7E
ENDCHAR
STARTCHAR endash
ENCODING 150
SWIDTH 909 0
DWIDTH 10 0
BBX 9 9 1 0
BITMAP
3C00
6600
0000
C300
C300
C300
C300
E700
7B80
ENDCHAR
STARTCHAR emdash
ENCODING 151
SWIDTH 909 0
DWIDTH 10 0
BBX 9 9 1 0
BITMAP
7000
1800
0000
C300
C300
C300
C300
E700
7B80
ENDCHAR
STARTCHAR tilde
ENCODING 152
SWIDTH 909 0
DWIDTH 10 0
BBX 8 10 1 -1
BITMAP
66
66
00
C3
C3
C3
E7
7F
03
7E
ENDCHAR
STARTCHAR trademark
ENCODING 153
SWIDTH 909 0
DWIDTH 10 0
BBX 9 9 1 0
BITMAP
6300
3E00
6300
C180
C180
C180
C180
6300
3E00
ENDCHAR
STARTCHAR scaron
ENCODING 154
SWIDTH 909 0
DWIDTH 10 0
BBX 8 9 1 0
BITMAP
66
81
C3
C3
C3
C3
C3
E7
7E
ENDCHAR
STARTCHAR guilsinglright
ENCODING 155
SWIDTH 909 0
DWIDTH 10 0
BBX 8 8 1 -1
BITMAP
18
7E
E3
C0
C0
E3
7E
18
ENDCHAR
STARTCHAR oe
ENCODING 156
SWIDTH 909 0
DWIDTH 10 0
BBX 7 9 1 0
BITMAP
1C
36
60
60
F8
60
60
E2
FC
ENDCHAR
STARTCHAR NameMe.157
ENCODING 157
SWIDTH 909 0
DWIDTH 10 0
BBX 8 9 1 0
BITMAP
C3
66
3C
18
FF
18
FF
18
18
ENDCHAR
STARTCHAR zcaron
ENCODING 158
SWIDTH 909 0
DWIDTH 10 0
BBX 9 10 0 -1
BITMAP
FC00
6600
6600
6600
7C00
6600
6F00
6600
F680
0300
ENDCHAR
STARTCHAR Ydieresis
ENCODING 159
SWIDTH 909 0
DWIDTH 10 0
BBX 8 11 1 -2
BITMAP
0E
19
18
18
3C
18
18
18
18
D8
70
ENDCHAR
STARTCHAR uni00A0
ENCODING 160
SWIDTH 909 0
DWIDTH 10 0
BBX 9 9 1 0
BITMAP
0E00
1800
0000
3E00
0300
7B00
C700
C700
7B80
ENDCHAR
STARTCHAR exclamdown
ENCODING 161
SWIDTH 909 0
DWIDTH 10 0
BBX 6 9 2 0
BITMAP
1C
30
00
F0
30
30
30
30
FC
ENDCHAR
STARTCHAR cent
ENCODING 162
SWIDTH 909 0
DWIDTH 10 0
BBX 8 9 1 0
BITMAP
0E
18
00
7E
E7
C3
C3
E7
7E
ENDCHAR
STARTCHAR sterling
ENCODING 163
SWIDTH 909 0
DWIDTH 10 0
BBX 9 9 1 0
BITMAP
0E00
1800
0000
C300
C300
C300
C300
E700
7B80
ENDCHAR
STARTCHAR currency
ENCODING 164
SWIDTH 909 0
DWIDTH 10 0
BBX 9 9 0 0
BITMAP
3B00
6E00
0000
EF00
7380
6180
6180
6180
6180
ENDCHAR
STARTCHAR yen
ENCODING 165
SWIDTH 909 0
DWIDTH 10 0
BBX 8 9 1 0
BITMAP
76
DD
E3
F3
DB
CF
C7
C3
C3
ENDCHAR
STARTCHAR brokenbar
ENCODING 166
SWIDTH 909 0
DWIDTH 10 0
BBX 6 6 1 3
BITMAP
70
D8
D8
6C
00
F8
ENDCHAR
STARTCHAR section
ENCODING 167
SWIDTH 909 0
DWIDTH 10 0
BBX 5 6 1 3
BITMAP
70
D8
D8
70
00
F8
ENDCHAR
STARTCHAR dieresis
ENCODING 168
SWIDTH 909 0
DWIDTH 10 0
BBX 8 9 1 0
BITMAP
18
18
00
18
30
60
C3
C7
7E
ENDCHAR
STARTCHAR copyright
ENCODING 169
SWIDTH 909 0
DWIDTH 10 0
BBX 8 5 2 0
BITMAP
FF
FF
C0
C0
C0
ENDCHAR
STARTCHAR ordfeminine
ENCODING 170
SWIDTH 909 0
DWIDTH 10 0
BBX 8 5 0 0
BITMAP
FF
FF
03
03
03
ENDCHAR
STARTCHAR guillemotleft
ENCODING 171
SWIDTH 909 0
DWIDTH 10 0
BBX 9 10 1 -1
BITMAP
6080
E180
6300
F600
0C00
1B80
3580
6300
C780
8000
ENDCHAR
STARTCHAR logicalnot
ENCODING 172
SWIDTH 909 0
DWIDTH 10 0
BBX 9 10 1 -1
BITMAP
6080
E180
6300
F600
0D80
1B80
3580
6780
C180
8000
ENDCHAR
STARTCHAR uni00AD
ENCODING 173
SWIDTH 909 0
DWIDTH 10 0
BBX 4 9 3 0
BITMAP
60
60
00
60
60
F0
F0
F0
60
ENDCHAR
STARTCHAR registered
ENCODING 174
SWIDTH 909 0
DWIDTH 10 0
BBX 8 5 1 2
BITMAP
33
66
CC
66
33
ENDCHAR
STARTCHAR macron
ENCODING 175
SWIDTH 909 0
DWIDTH 10 0
BBX 8 5 1 2
BITMAP
CC
66
33
66
CC
ENDCHAR
STARTCHAR degree
ENCODING 176
SWIDTH 909 0
DWIDTH 10 0
BBX 9 10 0 -1
BITMAP
8400
2100
0000
8400
1080
8400
2100
0000
8400
1080
ENDCHAR
STARTCHAR plusminus
ENCODING 177
SWIDTH 909 0
DWIDTH 10 0
BBX 10 11 0 -2
BITMAP
AA80
5540
5540
AA80
5540
AA80
5540
5540
AA80
5540
5540
ENDCHAR
STARTCHAR uni00B2
ENCODING 178
SWIDTH 909 0
DWIDTH 10 0
BBX 10 11 0 -2
BITMAP
7BC0
DEC0
FFC0
7BC0
EF40
7BC0
DEC0
FFC0
7BC0
EF40
FFC0
ENDCHAR
STARTCHAR uni00B3
ENCODING 179
SWIDTH 909 0
DWIDTH 10 0
BBX 2 11 4 -2
BITMAP
C0
C0
C0
C0
C0
C0
C0
C0
C0
C0
C0
ENDCHAR
STARTCHAR acute
ENCODING 180
SWIDTH 909 0
DWIDTH 10 0
BBX 6 11 0 -2
BITMAP
0C
0C
0C
0C
FC
FC
0C
0C
0C
0C
0C
ENDCHAR
STARTCHAR mu
ENCODING 181
SWIDTH 909 0
DWIDTH 10 0
BBX 6 11 0 -2
BITMAP
0C
0C
FC
FC
0C
0C
FC
FC
0C
0C
0C
ENDCHAR
STARTCHAR paragraph
ENCODING 182
SWIDTH 909 0
DWIDTH 10 0
BBX 8 11 0 -2
BITMAP
33
33
33
33
F3
F3
33
33
33
33
33
ENDCHAR
STARTCHAR periodcentered
ENCODING 183
SWIDTH 909 0
DWIDTH 10 0
BBX 8 7 0 -2
BITMAP
FF
FF
33
33
33
33
33
ENDCHAR
STARTCHAR cedilla
ENCODING 184
SWIDTH 909 0
DWIDTH 10 0
BBX 6 9 0 -2
BITMAP
FC
FC
0C
0C
FC
FC
0C
0C
0C
ENDCHAR
STARTCHAR uni00B9
ENCODING 185
SWIDTH 909 0
DWIDTH 10 0
BBX 8 11 0 -2
BITMAP
33
33
F3
F3
03
03
F3
F3
33
33
33
ENDCHAR
STARTCHAR ordmasculine
ENCODING 186
SWIDTH 909 0
DWIDTH 10 0
BBX 6 11 2 -2
BITMAP
CC
CC
CC
CC
CC
CC
CC
CC
CC
CC
CC
ENDCHAR
STARTCHAR guillemotright
ENCODING 187
SWIDTH 909 0
DWIDTH 10 0
BBX 8 9 0 -2
BITMAP
FF
FF
03
03
F3
F3
33
33
33
ENDCHAR
STARTCHAR onequarter
ENCODING 188
SWIDTH 909 0
DWIDTH 10 0
BBX 8 8 0 1
BITMAP
33
33
F3
F3
03
03
FF
FF
ENDCHAR
STARTCHAR onehalf
ENCODING 189
SWIDTH 909 0
DWIDTH 10 0
BBX 8 6 0 3
BITMAP
33
33
33
33
FF
FF
ENDCHAR
STARTCHAR threequarters
ENCODING 190
SWIDTH 909 0
DWIDTH 10 0
BBX 6 8 0 1
BITMAP
0C
0C
FC
FC
0C
0C
FC
FC
ENDCHAR
STARTCHAR questiondown
ENCODING 191
SWIDTH 909 0
DWIDTH 10 0
BBX 6 7 0 -2
BITMAP
FC
FC
0C
0C
0C
0C
0C
ENDCHAR
STARTCHAR Agrave
ENCODING 192
SWIDTH 909 0
DWIDTH 10 0
BBX 6 6 4 3
BITMAP
C0
C0
C0
C0
FC
FC
ENDCHAR
STARTCHAR Aacute
ENCODING 193
SWIDTH 909 0
DWIDTH 10 0
BBX 10 6 0 3
BITMAP
0C00
0C00
0C00
0C00
FFC0
FFC0
ENDCHAR
STARTCHAR Acircumflex
ENCODING 194
SWIDTH 909 0
DWIDTH 10 0
BBX 10 7 0 -2
BITMAP
FFC0
FFC0
0C00
0C00
0C00
0C00
0C00
ENDCHAR
STARTCHAR Atilde
ENCODING 195
SWIDTH 909 0
DWIDTH 10 0
BBX 6 11 4 -2
BITMAP
C0
C0
C0
C0
FC
FC
C0
C0
C0
C0
C0
ENDCHAR
STARTCHAR Adieresis
ENCODING 196
SWIDTH 909 0
DWIDTH 10 0
BBX 10 2 0 3
BITMAP
FFC0
FFC0
ENDCHAR
STARTCHAR Aring
ENCODING 197
SWIDTH 909 0
DWIDTH 10 0
BBX 10 11 0 -2
BITMAP
0C00
0C00
0C00
0C00
FFC0
FFC0
0C00
0C00
0C00
0C00
0C00
ENDCHAR
STARTCHAR AE
ENCODING 198
SWIDTH 909 0
DWIDTH 10 0
BBX 6 11 4 -2
BITMAP
C0
C0
FC
FC
C0
C0
FC
FC
C0
C0
C0
ENDCHAR
STARTCHAR Ccedilla
ENCODING 199
SWIDTH 909 0
DWIDTH 10 0
BBX 8 11 2 -2
BITMAP
CC
CC
CC
CC
CF
CF
CC
CC
CC
CC
CC
ENDCHAR
STARTCHAR Egrave
ENCODING 200
SWIDTH 909 0
DWIDTH 10 0
BBX 8 8 2 1
BITMAP
CC
CC
CF
CF
C0
C0
FF
FF
ENDCHAR
STARTCHAR Eacute
ENCODING 201
SWIDTH 909 0
DWIDTH 10 0
BBX 8 9 2 -2
BITMAP
FF
FF
C0
C0
CF
CF
CC
CC
CC
ENDCHAR
STARTCHAR Ecircumflex
ENCODING 202
SWIDTH 909 0
DWIDTH 10 0
BBX 10 8 0 1
BITMAP
3300
3300
F3C0
F3C0
0000
0000
FFC0
FFC0
ENDCHAR
STARTCHAR Edieresis
ENCODING 203
SWIDTH 909 0
DWIDTH 10 0
BBX 10 9 0 -2
BITMAP
FFC0
FFC0
0000
0000
F3C0
F3C0
3300
3300
3300
ENDCHAR
STARTCHAR Igrave
ENCODING 204
SWIDTH 909 0
DWIDTH 10 0
BBX 8 11 2 -2
BITMAP
CC
CC
CF
CF
C0
C0
CF
CF
CC
CC
CC
ENDCHAR
STARTCHAR Iacute
ENCODING 205
SWIDTH 909 0
DWIDTH 10 0
BBX 10 6 0 1
BITMAP
FFC0
FFC0
0000
0000
FFC0
FFC0
ENDCHAR
STARTCHAR Icircumflex
ENCODING 206
SWIDTH 909 0
DWIDTH 10 0
BBX 10 11 0 -2
BITMAP
3300
3300
F3C0
F3C0
0000
0000
F3C0
F3C0
3300
3300
3300
ENDCHAR
STARTCHAR Idieresis
ENCODING 207
SWIDTH 909 0
DWIDTH 10 0
BBX 10 8 0 1
BITMAP
0C00
0C00
FFC0
FFC0
0000
0000
FFC0
FFC0
ENDCHAR
STARTCHAR Eth
ENCODING 208
SWIDTH 909 0
DWIDTH 10 0
BBX 10 6 0 3
BITMAP
3300
3300
3300
3300
FFC0
FFC0
ENDCHAR
STARTCHAR Ntilde
ENCODING 209
SWIDTH 909 0
DWIDTH 10 0
BBX 10 9 0 -2
BITMAP
FFC0
FFC0
0000
0000
FFC0
FFC0
0C00
0C00
0C00
ENDCHAR
STARTCHAR Ograve
ENCODING 210
SWIDTH 909 0
DWIDTH 10 0
BBX 10 7 0 -2
BITMAP
FFC0
FFC0
3300
3300
3300
3300
3300
ENDCHAR
STARTCHAR Oacute
ENCODING 211
SWIDTH 909 0
DWIDTH 10 0
BBX 8 6 2 3
BITMAP
CC
CC
CC
CC
FF
FF
ENDCHAR
STARTCHAR Ocircumflex
ENCODING 212
SWIDTH 909 0
DWIDTH 10 0
BBX 6 8 4 1
BITMAP
C0
C0
FC
FC
C0
C0
FC
FC
ENDCHAR
STARTCHAR Otilde
ENCODING 213
SWIDTH 909 0
DWIDTH 10 0
BBX 6 9 4 -2
BITMAP
FC
FC
C0
C0
FC
FC
C0
C0
C0
ENDCHAR
STARTCHAR Odieresis
ENCODING 214
SWIDTH 909 0
DWIDTH 10 0
BBX 8 7 2 -2
BITMAP
FF
FF
CC
CC
CC
CC
CC
ENDCHAR
STARTCHAR multiply
ENCODING 215
SWIDTH 909 0
DWIDTH 10 0
BBX 10 11 0 -2
BITMAP
3300
3300
3300
3300
FFC0
FFC0
3300
3300
3300
3300
3300
ENDCHAR
STARTCHAR Oslash
ENCODING 216
SWIDTH 909 0
DWIDTH 10 0
BBX 10 11 0 -2
BITMAP
0C00
0C00
FFC0
FFC0
0C00
0C00
FFC0
FFC0
0C00
0C00
0C00
ENDCHAR
STARTCHAR Ugrave
ENCODING 217
SWIDTH 909 0
DWIDTH 10 0
BBX 6 6 0 3
BITMAP
0C
0C
0C
0C
FC
FC
ENDCHAR
STARTCHAR Uacute
ENCODING 218
SWIDTH 909 0
DWIDTH 10 0
BBX 6 7 4 -2
BITMAP
FC
FC
C0
C0
C0
C0
C0
ENDCHAR
STARTCHAR Ucircumflex
ENCODING 219
SWIDTH 909 0
DWIDTH 10 0
BBX 10 11 0 -2
BITMAP
FFC0
FFC0
FFC0
FFC0
FFC0
FFC0
FFC0
FFC0
FFC0
FFC0
FFC0
ENDCHAR
STARTCHAR Udieresis
ENCODING 220
SWIDTH 909 0
DWIDTH 10 0
BBX 10 6 0 -2
BITMAP
FFC0
FFC0
FFC0
FFC0
FFC0
FFC0
ENDCHAR
STARTCHAR Yacute
ENCODING 221
SWIDTH 909 0
DWIDTH 10 0
BBX 5 11 0 -2
BITMAP
F8
F8
F8
F8
F8
F8
F8
F8
F8
F8
F8
ENDCHAR
STARTCHAR Thorn
ENCODING 222
SWIDTH 909 0
DWIDTH 10 0
BBX 5 11 5 -2
BITMAP
F8
F8
F8
F8
F8
F8
F8
F8
F8
F8
F8
ENDCHAR
STARTCHAR germandbls
ENCODING 223
SWIDTH 909 0
DWIDTH 10 0
BBX 10 5 0 4
BITMAP
FFC0
FFC0
FFC0
FFC0
FFC0
ENDCHAR
STARTCHAR agrave
ENCODING 224
SWIDTH 909 0
DWIDTH 10 0
BBX 9 6 1 0
BITMAP
7B80
CF00
C600
C600
CF00
7B80
ENDCHAR
STARTCHAR aacute
ENCODING 225
SWIDTH 909 0
DWIDTH 10 0
BBX 8 8 1 0
BITMAP
3E
63
63
6E
63
63
63
EE
ENDCHAR
STARTCHAR acircumflex
ENCODING 226
SWIDTH 909 0
DWIDTH 10 0
BBX 8 9 1 0
BITMAP
FF
61
60
60
60
60
60
60
F0
ENDCHAR
STARTCHAR atilde
ENCODING 227
SWIDTH 909 0
DWIDTH 10 0
BBX 9 6 1 0
BITMAP
FF80
6300
6300
6300
6300
6300
ENDCHAR
STARTCHAR adieresis
ENCODING 228
SWIDTH 909 0
DWIDTH 10 0
BBX 8 9 1 0
BITMAP
FF
C1
60
30
18
30
60
C1
FF
ENDCHAR
STARTCHAR aring
ENCODING 229
SWIDTH 909 0
DWIDTH 10 0
BBX 8 6 1 0
BITMAP
7F
E6
C3
C3
E7
7E
ENDCHAR
STARTCHAR ae
ENCODING 230
SWIDTH 909 0
DWIDTH 10 0
BBX 9 8 1 -2
BITMAP
C300
C300
C300
C300
E300
FD80
C000
C000
ENDCHAR
STARTCHAR ccedilla
ENCODING 231
SWIDTH 909 0
DWIDTH 10 0
BBX 6 6 2 0
BITMAP
74
B8
30
30
30
30
ENDCHAR
STARTCHAR egrave
ENCODING 232
SWIDTH 909 0
DWIDTH 10 0
BBX 8 9 1 0
BITMAP
3C
18
7E
DB
DB
DB
7E
18
3C
ENDCHAR
STARTCHAR eacute
ENCODING 233
SWIDTH 909 0
DWIDTH 10 0
BBX 9 9 1 0
BITMAP
3E00
6300
C180
C180
FF80
C180
C180
6300
3E00
ENDCHAR
STARTCHAR ecircumflex
ENCODING 234
SWIDTH 909 0
DWIDTH 10 0
BBX 9 9 1 0
BITMAP
3E00
6300
C180
C180
C180
C180
6300
7700
F780
ENDCHAR
STARTCHAR edieresis
ENCODING 235
SWIDTH 909 0
DWIDTH 10 0
BBX 8 9 1 0
BITMAP
1E
39
1C
7E
E7
C3
C3
E7
7E
ENDCHAR
STARTCHAR igrave
ENCODING 236
SWIDTH 909 0
DWIDTH 10 0
BBX 9 6 1 0
BITMAP
7700
DD80
8880
8880
DD80
7700
ENDCHAR
STARTCHAR iacute
ENCODING 237
SWIDTH 909 0
DWIDTH 10 0
BBX 8 10 1 -1
BITMAP
02
04
7E
EF
CB
D3
F7
7E
20
40
ENDCHAR
STARTCHAR icircumflex
ENCODING 238
SWIDTH 909 0
DWIDTH 10 0
BBX 5 9 2 0
BITMAP
38
60
C0
C0
F0
C0
C0
60
38
ENDCHAR
STARTCHAR idieresis
ENCODING 239
SWIDTH 909 0
DWIDTH 10 0
BBX 8 9 1 0
BITMAP
3C
66
C3
C3
C3
C3
C3
C3
C3
ENDCHAR
STARTCHAR eth
ENCODING 240
SWIDTH 909 0
DWIDTH 10 0
BBX 8 5 1 2
BITMAP
FF
00
FF
00
FF
ENDCHAR
STARTCHAR ntilde
ENCODING 241
SWIDTH 909 0
DWIDTH 10 0
BBX 6 6 2 1
BITMAP
30
30
FC
30
30
FC
ENDCHAR
STARTCHAR ograve
ENCODING 242
SWIDTH 909 0
DWIDTH 10 0
BBX 6 10 2 -2
BITMAP
C0
60
30
18
0C
18
30
60
C0
F8
ENDCHAR
STARTCHAR oacute
ENCODING 243
SWIDTH 909 0
DWIDTH 10 0
BBX 6 10 2 -2
BITMAP
0C
18
30
60
C0
60
30
18
0C
FC
ENDCHAR
STARTCHAR ocircumflex
ENCODING 244
SWIDTH 909 0
DWIDTH 10 0
BBX 4 10 4 -2
BITMAP
60
F0
D0
C0
C0
C0
C0
C0
C0
C0
ENDCHAR
STARTCHAR otilde
ENCODING 245
SWIDTH 909 0
DWIDTH 10 0
BBX 4 10 2 -1
BITMAP
30
30
30
30
30
30
30
B0
F0
60
ENDCHAR
STARTCHAR odieresis
ENCODING 246
SWIDTH 909 0
DWIDTH 10 0
BBX 6 7 2 1
BITMAP
30
30
00
FC
00
30
30
ENDCHAR
STARTCHAR divide
ENCODING 247
SWIDTH 909 0
DWIDTH 10 0
BBX 6 6 2 1
BITMAP
60
B4
18
60
B4
18
ENDCHAR
STARTCHAR oslash
ENCODING 248
SWIDTH 909 0
DWIDTH 10 0
BBX 5 4 2 5
BITMAP
70
D8
D8
70
ENDCHAR
STARTCHAR ugrave
ENCODING 249
SWIDTH 909 0
DWIDTH 10 0
BBX 2 2 4 3
BITMAP
C0
C0
ENDCHAR
STARTCHAR uacute
ENCODING 250
SWIDTH 909 0
DWIDTH 10 0
BBX 2 1 4 4
BITMAP
C0
ENDCHAR
STARTCHAR ucircumflex
ENCODING 251
SWIDTH 909 0
DWIDTH 10 0
BBX 8 11 2 -2
BITMAP
1F
18
18
18
18
18
98
58
38
18
08
ENDCHAR
STARTCHAR udieresis
ENCODING 252
SWIDTH 909 0
DWIDTH 10 0
BBX 7 5 2 4
BITMAP
DC
E6
C6
C6
C6
ENDCHAR
STARTCHAR yacute
ENCODING 253
SWIDTH 909 0
DWIDTH 10 0
BBX 5 5 2 4
BITMAP
70
98
30
60
F8
ENDCHAR
STARTCHAR thorn
ENCODING 254
SWIDTH 909 0
DWIDTH 10 0
BBX 6 7 2 1
BITMAP
FC
FC
FC
FC
FC
FC
FC
ENDCHAR
STARTCHAR ydieresis
ENCODING 255
SWIDTH 909 0
DWIDTH 10 0
BBX 1 1 9 -2
BITMAP
00
ENDCHAR
ENDFONT
